<?xml version="1.0" encoding="utf-8"?>
<!-- Generator: Adobe Illustrator 18.1.1, SVG Export Plug-In . SVG Version: 6.00 Build 0)  -->
<svg version="1.1" id="Layer_1" xmlns="http://www.w3.org/2000/svg" xmlns:xlink="http://www.w3.org/1999/xlink" x="0px" y="0px"
	 viewBox="0 0 36.1 36" enable-background="new 0 0 36.1 36" xml:space="preserve">
<path fill="none" stroke="#2479B3" stroke-width="1.44" stroke-linecap="round" stroke-linejoin="round" stroke-miterlimit="22.9256" d="
	M27,12.2c4.2,5.7,3.7,13.7-1.5,18.9c-5.7,5.7-14.9,5.7-20.6,0c-5.7-5.7-5.7-14.9,0-20.6C10.1,5.3,18.1,4.8,23.8,9"/>
<path fill="none" stroke="#2479B3" stroke-width="1.44" stroke-linecap="round" stroke-linejoin="round" stroke-miterlimit="22.9256" d="
	M24.2,15.1c2.6,4.1,2.1,9.6-1.4,13.2c-4.1,4.1-10.8,4.1-14.9,0c-4.1-4.1-4.1-10.8,0-14.9c3.6-3.6,9.1-4,13.2-1.4"/>
<path fill="none" stroke="#2479B3" stroke-width="1.44" stroke-linecap="round" stroke-linejoin="round" stroke-miterlimit="22.9256" d="
	M21.2,18c1.1,2.4,0.7,5.4-1.3,7.4c-2.6,2.6-6.7,2.6-9.3,0c-2.6-2.6-2.6-6.7,0-9.3c2-2,5-2.4,7.4-1.3"/>
<path fill="none" stroke="#2479B3" stroke-width="1.44" stroke-linecap="round" stroke-linejoin="round" stroke-miterlimit="22.9256" d="
	M17.7,21.5c-0.1,0.4-0.3,0.8-0.6,1.1c-1,1-2.6,1-3.6,0c-1-1-1-2.6,0-3.6c0.3-0.3,0.7-0.5,1.1-0.6"/>
<line fill="none" stroke="#2479B3" stroke-width="1.44" stroke-linecap="round" stroke-linejoin="round" stroke-miterlimit="22.9256" x1="15.5" y1="20.6" x2="33.6" y2="2.5"/>
<polyline fill="none" stroke="#2479B3" stroke-width="1.44" stroke-linecap="round" stroke-linejoin="round" stroke-miterlimit="22.9256" points="
	27.5,9.3 31.1,10.5 35.4,6.2 31.8,5.1 "/>
<polyline fill="none" stroke="#2479B3" stroke-width="1.44" stroke-linecap="round" stroke-linejoin="round" stroke-miterlimit="22.9256" points="
	26.8,8.7 25.6,5 29.9,0.7 31.1,4.4 "/>
</svg>
