<?xml version="1.0" encoding="utf-8"?>
<!-- Generator: Adobe Illustrator 18.1.1, SVG Export Plug-In . SVG Version: 6.00 Build 0)  -->
<svg version="1.1" id="Layer_1" xmlns="http://www.w3.org/2000/svg" xmlns:xlink="http://www.w3.org/1999/xlink" x="0px" y="0px"
	 viewBox="0 0 35.4 36.6" enable-background="new 0 0 35.4 36.6" xml:space="preserve">
<path fill="none" stroke="#88CC66" stroke-width="1.44" stroke-linecap="round" stroke-linejoin="round" stroke-miterlimit="22.9256" d="
	M23.3,17.4L21,16.1l1.1-2.5c-0.4-0.3-0.7-0.7-0.9-1.2L18.4,13l-0.8-2.6l2.5-1c0-0.5,0-1,0.1-1.5L18,6.4L19.3,4l2.5,1.1
	c0.3-0.4,0.7-0.7,1.2-1l-0.5-2.7L25,0.7l1,2.5c0.5,0,1,0,1.5,0.1L29,1.1l2.4,1.3l-1.1,2.5c0.4,0.3,0.7,0.7,1,1.2l2.7-0.5l0.8,2.6
	l-2.5,1c0,0.5,0,1-0.1,1.5l2.3,1.5L33,14.4l-2.5-1.1c-0.3,0.4-0.7,0.7-1.2,1l0.5,2.7l-2.6,0.8l-1-2.5c-0.5,0-1,0-1.5-0.1L23.3,17.4
	L23.3,17.4z"/>
<path fill="none" stroke="#88CC66" stroke-width="1.44" stroke-linecap="round" stroke-linejoin="round" stroke-miterlimit="22.9256" d="
	M25.5,7c1.4-0.4,2.5,0.2,2.9,1.6c0.4,1.4-0.2,2.5-1.6,2.9c-1.4,0.4-2.5-0.2-2.9-1.6C23.5,8.5,24.1,7.4,25.5,7L25.5,7z"/>
<path fill="none" stroke="#88CC66" stroke-width="1.44" stroke-linecap="round" stroke-linejoin="round" stroke-miterlimit="22.9256" d="
	M8.1,35.4l-3.1-1.7l1.4-3.3c-0.5-0.4-0.9-1-1.2-1.5l-3.5,0.7l-1-3.4L4,25c0-0.7,0-1.3,0.2-1.9l-3-1.9L2.9,18l3.3,1.4
	c0.4-0.5,1-0.9,1.5-1.2l-0.7-3.5l3.4-1l1.3,3.3c0.7,0,1.3,0,1.9,0.2l1.9-3l3.1,1.7l-1.4,3.3c0.5,0.4,0.9,1,1.2,1.5l3.5-0.7l1,3.4
	l-3.3,1.3c0,0.7,0,1.3-0.2,1.9l3,1.9l-1.7,3.1l-3.3-1.4c-0.4,0.5-1,0.9-1.5,1.2l0.7,3.5l-3.4,1L12,32.6c-0.7,0-1.3,0-1.9-0.2
	L8.1,35.4L8.1,35.4z"/>
<path fill="none" stroke="#88CC66" stroke-width="1.44" stroke-linecap="round" stroke-linejoin="round" stroke-miterlimit="22.9256" d="
	M10.6,20.8c2.2-0.7,4.5,0.6,5.1,2.8c0.7,2.2-0.6,4.5-2.8,5.1c-2.2,0.7-4.5-0.6-5.1-2.8C7.2,23.8,8.5,21.5,10.6,20.8L10.6,20.8z"/>
</svg>
