<?xml version="1.0" encoding="utf-8"?>
<!-- Generator: Adobe Illustrator 18.1.1, SVG Export Plug-In . SVG Version: 6.00 Build 0)  -->
<svg version="1.1" id="Layer_1" xmlns="http://www.w3.org/2000/svg" xmlns:xlink="http://www.w3.org/1999/xlink" x="0px" y="0px"
	 viewBox="0 0 34.3 34.3" enable-background="new 0 0 34.3 34.3" xml:space="preserve">
<path fill="none" stroke="#287AB4" stroke-width="1.44" stroke-linecap="round" stroke-linejoin="round" stroke-miterlimit="22.9256" d="
	M31.5,3.5l-0.6-0.6C28,0,23.3,0,20.5,2.9l-7.3,7.3c-2.9,2.9-2.9,7.5,0,10.4l0.6,0.6c0.6,0.6,1.4,1.1,2.2,1.5l2-2
	c0.5-0.5,0.8-1.3,0.6-2c-0.4-0.1-0.9-0.3-1.2-0.6l-1-1c-0.9-0.9-0.9-2.4,0-3.2L24,6.1c0.9-0.9,2.3-0.9,3.2,0l1,1
	c0.9,0.9,0.9,2.3,0,3.2l-5.6,5.6c0.9,2.1,0.8,4.5-0.2,6.5c0.6-0.3,1.2-0.8,1.7-1.3l7.3-7.3C34.3,11,34.3,6.3,31.5,3.5L31.5,3.5z"/>
<path fill="none" stroke="#287AB4" stroke-width="1.44" stroke-linecap="round" stroke-linejoin="round" stroke-miterlimit="22.9256" d="
	M2.9,30.9l0.6,0.6c2.9,2.9,7.5,2.9,10.4,0l7.3-7.3c2.9-2.9,2.9-7.5,0-10.4l-0.6-0.6c-0.6-0.6-1.4-1.1-2.2-1.5l-2,2
	c-0.5,0.5-0.8,1.3-0.6,2c0.4,0.1,0.9,0.3,1.2,0.6l1,1c0.9,0.9,0.9,2.4,0,3.2l-7.6,7.6c-0.9,0.9-2.3,0.9-3.2,0l-1-1
	c-0.9-0.9-0.9-2.3,0-3.2l5.6-5.6c-0.9-2.1-0.8-4.5,0.2-6.5c-0.6,0.3-1.2,0.8-1.7,1.3l-7.3,7.3C0,23.3,0,28,2.9,30.9L2.9,30.9z"/>
</svg>
