<?xml version="1.0" encoding="UTF-8"?>
<svg width="10px" height="8px" viewBox="0 0 10 8" version="1.1" xmlns="http://www.w3.org/2000/svg" xmlns:xlink="http://www.w3.org/1999/xlink">
    <!-- Generator: Sketch 41.2 (35397) - http://www.bohemiancoding.com/sketch -->
    <title>Combined Shape</title>
    <desc>Created with Sketch.</desc>
    <defs></defs>
    <g id="Page-1" stroke="none" stroke-width="1" fill="none" fill-rule="evenodd">
        <g id="namecard" transform="translate(-187.000000, -426.000000)" fill="#2b3740">
            <g id="CEO" transform="translate(158.000000, 302.000000)">
                <g id="Group-2" transform="translate(29.000000, 123.000000)">
                    <path d="M1.61121169,5.17322711 L1.61121169,9 L4.08956654,9 L4.08956654,6.32460991 L5.93794476,6.32460991 L5.93794476,9 L8.32917517,9 L8.32917517,5.17322711 L4.9608108,2.88788638 L1.61121169,5.17322711 Z M9.42573661,3.92319264 L5.31346367,1.10840347 C5.10034392,0.963642886 4.82020538,0.963642886 4.60708563,1.10974385 L0.269629559,4.09744149 C-0.0131897338,4.29179598 -0.0855700267,4.68050496 0.110124839,4.96332426 C0.232099037,5.13891349 0.425113151,5.23408017 0.624829144,5.23408017 C0.745462966,5.23408017 0.868777539,5.19789002 0.977347978,5.12416935 L4.96228522,2.3804201 L8.72203932,4.95260125 C9.00619899,5.14695574 9.39356759,5.07323507 9.58792208,4.7890754 C9.78361695,4.50625611 9.70989628,4.11888751 9.42573661,3.92319264 Z" id="Combined-Shape"></path>
                </g>
            </g>
        </g>
    </g>
</svg>