<?xml version="1.0" encoding="UTF-8"?>
<svg width="7px" height="7px" viewBox="0 0 7 7" version="1.1" xmlns="http://www.w3.org/2000/svg" xmlns:xlink="http://www.w3.org/1999/xlink">
    <!-- Generator: Sketch 41.2 (35397) - http://www.bohemiancoding.com/sketch -->
    <title>Page 1</title>
    <desc>Created with Sketch.</desc>
    <defs>
        <polygon id="path-1" points="6.227 0.000619257077 6.227 6.66699 0 6.66699 0 3.33380463 0 0.000619257077 6.227 0.000619257077"></polygon>
    </defs>
    <g id="Page-1" stroke="none" stroke-width="1" fill="none" fill-rule="evenodd">
        <g id="namecard" transform="translate(-188.000000, -400.000000)">
            <g id="CEO" transform="translate(158.000000, 302.000000)">
                <g id="Group-3-Copy" transform="translate(30.000000, 95.000000)">
                    <g id="Page-1" transform="translate(0.000000, 3.000000)">
                        <mask id="mask-2" fill="white">
                            <use xlink:href="#path-1"></use>
                        </mask>
                        <g id="Clip-2"></g>
                        <path d="M0,2.02639 C0.006,1.40039 0.258,0.86139 0.715,0.44339 C0.898,0.27339 1.145,-0.03161 1.422,0.00339 C1.709,0.03639 1.918,0.35339 2.061,0.57839 C2.307,0.96339 2.709,1.52939 2.34,1.96139 C2.164,2.16839 1.885,2.27639 1.725,2.49739 C1.562,2.72439 1.656,3.02439 1.77,3.25039 C2.027,3.76439 2.463,4.25539 2.906,4.61839 C3.105,4.77939 3.375,4.97539 3.645,4.92839 C3.922,4.88139 4.143,4.57239 4.348,4.40239 C4.875,3.97539 5.455,4.55939 5.842,4.90839 C6.023,5.06839 6.238,5.28439 6.227,5.54739 C6.213,5.81339 5.861,6.03639 5.676,6.19139 C5.16,6.61239 4.518,6.75339 3.865,6.61639 C3.166,6.46839 2.576,6.05039 2.049,5.58539 C1.514,5.10939 1.059,4.53939 0.668,3.94239 C0.482,3.66339 0.322,3.37339 0.207,3.05639 C0.086,2.71439 0.043,2.38339 0,2.02639 C0.004,1.68139 0.021,2.21039 0,2.02639" id="Fill-1" fill="#2b3740" mask="url(#mask-2)"></path>
                    </g>
                </g>
            </g>
        </g>
    </g>
</svg>