<?xml version="1.0" encoding="utf-8"?>
<!-- Generator: Adobe Illustrator 18.1.1, SVG Export Plug-In . SVG Version: 6.00 Build 0)  -->
<svg version="1.1" id="Layer_1" xmlns="http://www.w3.org/2000/svg" xmlns:xlink="http://www.w3.org/1999/xlink" x="0px" y="0px"
	 viewBox="0 0 34.3 34.3" enable-background="new 0 0 34.3 34.3" xml:space="preserve">
<path fill="none" stroke="#88CC66" stroke-width="1.4397" stroke-linecap="round" stroke-linejoin="round" stroke-miterlimit="22.9256" d="
	M2.4,0.7h14.7v5.4c0.2,0.6,0.8,1,1.5,1c1.4,0,1.4-1.8,3.8-1.8c2,0,3.6,1.6,3.6,3.6c0,2-1.6,3.6-3.6,3.6c-2.2,0-2.4-1.6-3.8-1.6
	c-0.5,0-1.2,0.4-1.5,0.8v5.3h-5.7c-0.2-0.3-0.4-0.7-0.4-1c0-1.4,1.6-1.6,1.6-3.8c0-2-1.6-3.6-3.6-3.6c-2,0-3.6,1.6-3.6,3.6
	c0,2.4,1.8,2.5,1.8,3.8c0,0.4-0.1,0.8-0.3,1h-6V2.4C0.7,1.5,1.5,0.7,2.4,0.7L2.4,0.7z M17.2,33.6H2.4c-0.9,0-1.7-0.8-1.7-1.7V17.2
	 M31.9,33.6H17.2v-5.4c-0.2-0.6-0.8-1-1.5-1c-1.4,0-1.4,1.8-3.8,1.8c-2,0-3.6-1.6-3.6-3.6c0-2,1.6-3.6,3.6-3.6
	c2.2,0,2.4,1.6,3.8,1.6c0.5,0,1.2-0.4,1.5-0.8v-5.3h5.7c0.2,0.3,0.4,0.7,0.4,1c0,1.4-1.6,1.6-1.6,3.8c0,2,1.6,3.6,3.6,3.6
	c2,0,3.6-1.6,3.6-3.6c0-2.4-1.8-2.5-1.8-3.8c0-0.4,0.1-0.8,0.3-1h6v14.7C33.6,32.8,32.8,33.6,31.9,33.6L31.9,33.6z M17.2,0.7h14.7
	c0.9,0,1.7,0.8,1.7,1.7v14.7"/>
</svg>
