<?xml version="1.0" encoding="utf-8"?>
<!-- Generator: Adobe Illustrator 18.1.1, SVG Export Plug-In . SVG Version: 6.00 Build 0)  -->
<svg version="1.1" id="Layer_1" xmlns="http://www.w3.org/2000/svg" xmlns:xlink="http://www.w3.org/1999/xlink" x="0px" y="0px"
	 viewBox="0 0 34.3 32" enable-background="new 0 0 34.3 32" xml:space="preserve">
<path fill="none" stroke="#F26161" stroke-width="1.44" stroke-linecap="round" stroke-linejoin="round" stroke-miterlimit="22.9256" d="
	M11.9,30.2C5.5,28.5,0.7,22.7,0.7,15.7c0-8.3,6.7-15,15-15c8.3,0,15,6.7,15,15 M24.3,7.5l-7.2,7.2 M14.3,15.1l-5.6-3.2"/>
<path fill="none" stroke="#F26161" stroke-width="1.44" stroke-miterlimit="22.9256" d="M15.7,14c-0.9,0-1.7,0.8-1.7,1.7
	c0,0.9,0.8,1.7,1.7,1.7c0.9,0,1.7-0.8,1.7-1.7C17.4,14.8,16.6,14,15.7,14L15.7,14z"/>
<path fill="none" stroke="#F26161" stroke-width="1.44" stroke-linecap="round" stroke-linejoin="round" stroke-miterlimit="22.9256" d="
	M15.7,4.3v1.1 M4.3,15.7h1.1 M33.6,11.8L31,17.2l-3.7-4.7 M29.7,31.3V20l-5.5,8l7.8-0.1 M22.8,31.3h-7.1l4.2-4.2 M20,27.1
	c3-2.6,2.1-5.3,0.3-6.3c-2.8-1.5-4.9,1.5-4.6,3.5"/>
</svg>
