<?xml version="1.0" encoding="utf-8"?>
<!-- Generator: Adobe Illustrator 18.1.1, SVG Export Plug-In . SVG Version: 6.00 Build 0)  -->
<svg version="1.1" id="Layer_1" xmlns="http://www.w3.org/2000/svg" xmlns:xlink="http://www.w3.org/1999/xlink" x="0px" y="0px"
	 viewBox="0 0 34.4 36.7" enable-background="new 0 0 34.4 36.7" xml:space="preserve">
<path fill="none" stroke="#88CC66" stroke-width="1.4397" stroke-linecap="round" stroke-linejoin="round" stroke-miterlimit="22.9256" d="
	M13,3.4c1-1.7,2.1-2.7,3.3-2.7c3.5,0,6.3,7.9,6.3,17.6c0,9.7-2.8,17.6-6.3,17.6c-3.5,0-6.3-7.9-6.3-17.6c0-4.5,0.6-8.6,1.6-11.7
	 M5.4,28.7c-2.1,0.1-3.7-0.4-4.3-1.5c-1.7-3,3.7-9.4,12.1-14.3C21.6,8,29.8,6.5,31.6,9.5c1.7,3-3.7,9.4-12.1,14.3
	c-3.7,2.1-7.4,3.6-10.5,4.4 M31.2,27.7c-2.4,2.3-10.1,0.7-18-3.9C4.7,18.9-0.7,12.5,1,9.5c1.7-3,10-1.5,18.4,3.4
	c6.4,3.7,11.1,8.3,12.2,11.6"/>
<path fill="none" stroke="#88CC66" stroke-width="1.4397" stroke-miterlimit="22.9256" d="M12.1,3.3c0.9,0,1.7,0.8,1.7,1.7
	s-0.8,1.7-1.7,1.7S10.4,5.9,10.4,5S11.2,3.3,12.1,3.3L12.1,3.3z M7.2,26.9c0.9,0,1.7,0.8,1.7,1.7c0,0.9-0.8,1.7-1.7,1.7
	c-0.9,0-1.7-0.8-1.7-1.7C5.5,27.7,6.3,26.9,7.2,26.9L7.2,26.9z M32,24.4c0.9,0,1.7,0.8,1.7,1.7S33,27.8,32,27.8
	c-0.9,0-1.7-0.8-1.7-1.7S31.1,24.4,32,24.4L32,24.4z M16.3,15.4c1.6,0,2.9,1.3,2.9,2.9c0,1.6-1.3,2.9-2.9,2.9s-2.9-1.3-2.9-2.9
	C13.4,16.7,14.7,15.4,16.3,15.4L16.3,15.4z"/>
</svg>
