<?xml version="1.0" encoding="UTF-8"?>
<svg width="84px" height="97px" viewBox="0 0 84 97" version="1.1" xmlns="http://www.w3.org/2000/svg" xmlns:xlink="http://www.w3.org/1999/xlink">
    <!-- Generator: Sketch 40.3 (33839) - http://www.bohemiancoding.com/sketch -->
    <title>LOGO outline Copy</title>
    <desc>Created with Sketch.</desc>
    <defs></defs>
    <g id="Page-1" stroke="none" stroke-width="1" fill="none" fill-rule="evenodd">
        <g id="logo" transform="translate(-635.000000, -328.000000)">
            <g id="LOGO-outline-Copy" transform="translate(635.000000, 328.000000)">
                <g id="logo">
                    <polygon id="Fill-1" fill="#36BAEC" points="41.8104407 0.0759287645 20.9017842 12.1768913 41.8104407 24.2729338"></polygon>
                    <polygon id="Fill-2" fill="#1C97D4" points="0 24.2731798 20.9012934 36.3741423 20.9012934 12.1771373"></polygon>
                    <polygon id="Fill-3" fill="#36BAEC" points="0 48.4748589 20.9012934 36.3738963 0 24.2729338"></polygon>
                    <polygon id="Fill-4" fill="#0882C0" points="62.7227786 12.1776293 62.7227786 36.3721743 41.8092135 24.2736718"></polygon>
                    <polygon id="Fill-5" fill="#1C97D4" points="41.8104407 0.0759287645 41.8104407 24.2729338 62.7215515 12.1768913"></polygon>
                    <polygon id="Fill-6" fill="#0882C0" points="62.7222878 36.3729123 83.6211268 48.4738748 83.6211268 24.2719497"></polygon>
                    <polygon id="Fill-7" fill="#1E447C" points="62.7222878 36.3729123 83.6211268 24.2719497 62.7222878 12.1783673"></polygon>
                    <polygon id="Fill-8" fill="#36BAEC" points="41.8104407 48.4753509 62.7240058 36.3719283 62.7240058 60.5787735"></polygon>
                    <polygon id="Fill-9" fill="#0882C0" points="62.7222878 60.5790195 83.6211268 72.6726019 83.6211268 48.4755969"></polygon>
                    <polygon id="Fill-10" fill="#1C97D4" points="62.7222878 60.5790195 83.6211268 48.4755969 62.7222878 36.3721743"></polygon>
                    <polygon id="Fill-11" fill="#1E447C" points="62.7222878 84.7674143 83.6211268 72.6713719 62.7222878 60.5777894"></polygon>
                    <polygon id="Fill-12" fill="#36BAEC" points="20.9008025 84.7674143 41.8094589 96.873297 41.8094589 72.6713719"></polygon>
                    <polygon id="Fill-13" fill="#1C97D4" points="41.8104407 96.873789 62.7215515 84.7679063 41.8104407 72.6718639"></polygon>
                    <polygon id="Fill-14" fill="#1C97D4" points="0 48.4748589 20.9012934 60.5782815 20.9012934 36.3738963"></polygon>
                    <polygon id="Fill-15" fill="#0882C0" points="0 72.6721099 20.9012934 60.5785275 0 48.4751049"></polygon>
                    <polygon id="Fill-16" fill="#1E447C" points="0 72.6721099 20.9012934 84.7681523 20.9012934 60.5785275"></polygon>
                    <polygon id="Fill-17" fill="#0882C0" points="20.9003116 36.3743883 41.8114224 48.4753509 20.9003116 60.5787735"></polygon>
                    <polygon id="Fill-18" fill="#0882C0" points="20.9003116 60.5785275 41.8114224 72.6721099 20.9003116 84.7681523"></polygon>
                </g>
            </g>
        </g>
    </g>
</svg>