<?xml version="1.0" encoding="UTF-8"?>
<svg width="271px" height="100px" viewBox="0 0 271 100" version="1.1" xmlns="http://www.w3.org/2000/svg" xmlns:xlink="http://www.w3.org/1999/xlink">
    <!-- Generator: Sketch 41.2 (35397) - http://www.bohemiancoding.com/sketch -->
    <title>LOGO outline Copy 3</title>
    <desc>Created with Sketch.</desc>
    <defs></defs>
    <g id="Page-1" stroke="none" stroke-width="1" fill="none" fill-rule="evenodd">
        <g id="logo-copy" transform="translate(-300.000000, -450.000000)" fill="#FFFFFF">
            <g id="LOGO-outline-Copy-3" transform="translate(300.000000, 450.000000)">
                <g id="ICON-Copy-2">
                    <polygon id="Fill-1" points="41.9601977 0.4846605 20.9797326 12.5141155 41.9601977 24.5440555 62.9411512 36.5725405 41.9601977 48.6024805 62.9411512 60.6319355 62.9411512 84.6918155 83.9221047 72.6618755 83.9221047 24.5440555 62.9411512 12.5141155"></polygon>
                    <polygon id="Fill-2" points="0 24.544104 0 72.661924 20.9799767 84.691864 41.9604419 96.721319 62.940907 84.691864 41.9604419 72.661924 20.9799767 60.631984 41.9604419 48.602529 20.9799767 36.573074 20.9799767 36.572589 20.9799767 12.514164"></polygon>
                </g>
                <path d="M131.497175,72.126589 L95.480226,72.126589 L95.480226,65.4727225 L118.685999,32.2033898 L96.1091984,32.2033898 L96.1091984,23.7288136 L130.868203,23.7288136 L130.868203,30.3495763 L107.695533,63.6520127 L131.497175,63.6520127 L131.497175,72.126589 Z M153.742938,41.6048729 C151.602214,41.6048729 149.924971,42.2834943 148.711158,43.6407574 C147.497346,44.9980206 146.802172,46.9235398 146.625618,49.4173729 L160.79405,49.4173729 C160.749912,46.9235398 160.098876,44.9980206 158.840925,43.6407574 C157.582974,42.2834943 155.883662,41.6048729 153.742938,41.6048729 L153.742938,41.6048729 Z M155.166402,72.7886653 C149.207686,72.7886653 144.551129,71.1445256 141.196593,67.856197 C137.842056,64.5678684 136.164813,59.9113119 136.164813,53.8863877 C136.164813,47.684909 137.715159,42.8904212 140.815899,39.5027807 C143.916638,36.1151402 148.203539,34.4213453 153.67673,34.4213453 C158.907159,34.4213453 162.978887,35.9110021 165.892037,38.8903602 C168.805188,41.8697183 170.261741,45.9855846 170.261741,51.2380826 L170.261741,56.137447 L146.393891,56.137447 C146.504238,59.0064586 147.353894,61.2464609 148.942885,62.8575212 C150.531876,64.4685815 152.760844,65.2740996 155.629855,65.2740996 C157.858856,65.2740996 159.966445,65.0423752 161.952684,64.5789195 C163.938922,64.1154638 166.013407,63.3761527 168.176201,62.360964 L168.176201,70.173464 C166.410655,71.0562368 164.523757,71.7127892 162.515448,72.1431409 C160.50714,72.5734926 158.057483,72.7886653 155.166402,72.7886653 L155.166402,72.7886653 Z M194.063383,64.7444386 C195.828928,64.7444386 197.947551,64.3582313 200.419315,63.5858051 L200.419315,71.1003708 C197.903413,72.2259061 194.813754,72.7886653 191.150247,72.7886653 C187.111562,72.7886653 184.170869,71.7679745 182.328081,69.7265625 C180.485293,67.6851505 179.563912,64.6230783 179.563912,60.5402542 L179.563912,42.6972987 L174.730756,42.6972987 L174.730756,38.4269068 L180.292196,35.0503178 L183.205332,27.2378178 L189.660576,27.2378178 L189.660576,35.1165254 L200.022069,35.1165254 L200.022069,42.6972987 L189.660576,42.6972987 L189.660576,60.5402542 C189.660576,61.97476 190.063335,63.0340714 190.868865,63.7182203 C191.674395,64.4023692 192.739224,64.7444386 194.063383,64.7444386 L194.063383,64.7444386 Z M223.492673,64.7444386 C225.258219,64.7444386 227.376841,64.3582313 229.848605,63.5858051 L229.848605,71.1003708 C227.332703,72.2259061 224.243044,72.7886653 220.579537,72.7886653 C216.540852,72.7886653 213.600159,71.7679745 211.757371,69.7265625 C209.914583,67.6851505 208.993203,64.6230783 208.993203,60.5402542 L208.993203,42.6972987 L204.160046,42.6972987 L204.160046,38.4269068 L209.721487,35.0503178 L212.634622,27.2378178 L219.089866,27.2378178 L219.089866,35.1165254 L229.451359,35.1165254 L229.451359,42.6972987 L219.089866,42.6972987 L219.089866,60.5402542 C219.089866,61.97476 219.492625,63.0340714 220.298155,63.7182203 C221.103685,64.4023692 222.168514,64.7444386 223.492673,64.7444386 L223.492673,64.7444386 Z M260.833775,72.126589 L258.88065,67.0948093 L258.615819,67.0948093 C256.916482,69.2355333 255.167514,70.7196728 253.368865,71.5472722 C251.570215,72.3748717 249.225385,72.7886653 246.334304,72.7886653 C242.781144,72.7886653 239.9839,71.7734918 237.942488,69.7431144 C235.901076,67.712737 234.880385,64.8216995 234.880385,61.0699153 C234.880385,57.1415764 236.254179,54.2450217 239.00181,52.3801642 C241.74944,50.5153067 245.892893,49.4835815 251.432292,49.2849576 L257.854431,49.0863347 L257.854431,47.4642479 C257.854431,43.7124636 255.93443,41.8365996 252.094368,41.8365996 C249.137079,41.8365996 245.661213,42.7303936 241.666667,44.5180085 L238.323181,37.6986229 C242.58256,35.4696216 247.305324,34.3551377 252.491614,34.3551377 C257.457211,34.3551377 261.264111,35.4365181 263.912429,37.5993114 C266.560748,39.7621047 267.884887,43.050384 267.884887,47.4642479 L267.884887,72.126589 L260.833775,72.126589 Z M257.854431,54.9788136 L253.948181,55.1112288 C251.012962,55.1995061 248.828132,55.7291618 247.393626,56.7002119 C245.959121,57.6712619 245.241879,59.1498841 245.241879,61.1361229 C245.241879,63.9830651 246.874984,65.4065148 250.141243,65.4065148 C252.480591,65.4065148 254.350938,64.7334107 255.752339,63.3871822 C257.153741,62.0409537 257.854431,60.2533657 257.854431,58.0243644 L257.854431,54.9788136 Z" id="Zetta"></path>
                <path d="M101.941263,99.3381996 L100.206071,99.3381996 L100.206071,85.9568106 L95.480226,85.9568106 L95.480226,84.4155522 L106.667108,84.4155522 L106.667108,85.9568106 L101.941263,85.9568106 L101.941263,99.3381996 Z M121.468651,99.3381996 L113.149938,99.3381996 L113.149938,84.4155522 L121.468651,84.4155522 L121.468651,85.9568106 L114.88513,85.9568106 L114.88513,90.7643119 L121.070577,90.7643119 L121.070577,92.2953633 L114.88513,92.2953633 L114.88513,97.7867342 L121.468651,97.7867342 L121.468651,99.3381996 Z M135.402598,85.7526704 C133.762663,85.7526704 132.468087,86.2987399 131.518831,87.3908953 C130.569574,88.4830508 130.094953,89.9783627 130.094953,91.8768759 C130.094953,93.8298267 130.552562,95.3387478 131.467796,96.4036845 C132.383029,97.4686211 133.687812,98.0010814 135.382184,98.0010814 C136.423304,98.0010814 137.610707,97.8139548 138.94443,97.4396959 L138.94443,98.9605403 C137.910114,99.3484085 136.634251,99.5423398 135.116801,99.5423398 C132.918881,99.5423398 131.222833,98.8754885 130.028607,97.541766 C128.834381,96.2080434 128.237277,94.312961 128.237277,91.8564619 C128.237277,90.3185981 128.524772,88.9712864 129.099769,87.8144862 C129.674767,86.6576861 130.504929,85.7662829 131.59028,85.1402498 C132.67563,84.5142168 133.953195,84.201205 135.423012,84.201205 C136.988094,84.201205 138.35582,84.4869984 139.526229,85.0585938 L138.791325,86.5488171 C137.661743,86.01805 136.532179,85.7526704 135.402598,85.7526704 L135.402598,85.7526704 Z M157.767534,99.3381996 L156.032342,99.3381996 L156.032342,92.3157773 L148.172945,92.3157773 L148.172945,99.3381996 L146.437754,99.3381996 L146.437754,84.4155522 L148.172945,84.4155522 L148.172945,90.7643119 L156.032342,90.7643119 L156.032342,84.4155522 L157.767534,84.4155522 L157.767534,99.3381996 Z M177.754237,99.3381996 L175.774078,99.3381996 L167.618677,86.8141993 L167.537021,86.8141993 C167.645896,88.284016 167.700333,89.6313277 167.700333,90.856175 L167.700333,99.3381996 L166.097833,99.3381996 L166.097833,84.4155522 L168.057579,84.4155522 L176.192565,96.8885174 L176.274221,96.8885174 C176.260612,96.7047903 176.229991,96.1144908 176.182358,95.1176013 C176.134725,94.1207117 176.117713,93.4079294 176.131323,92.9792329 L176.131323,84.4155522 L177.754237,84.4155522 L177.754237,99.3381996 Z M199.047438,91.8564619 C199.047438,94.244914 198.443529,96.1229849 197.235694,97.4907309 C196.027858,98.858477 194.348822,99.5423398 192.198535,99.5423398 C190.000614,99.5423398 188.304567,98.8703851 187.110341,97.5264555 C185.916114,96.1825259 185.31901,94.2857423 185.31901,91.8360478 C185.31901,89.4067675 185.917816,87.5235932 187.115444,86.1864683 C188.313072,84.8493434 190.014224,84.180791 192.218949,84.180791 C194.362431,84.180791 196.036364,84.8612514 197.240797,86.2221928 C198.44523,87.5831342 199.047438,89.4612051 199.047438,91.8564619 L199.047438,91.8564619 Z M187.156272,91.8564619 C187.156272,93.8774598 187.586663,95.410197 188.447459,96.4547195 C189.308254,97.499242 190.5586,98.0214954 192.198535,98.0214954 C193.852078,98.0214954 195.100723,97.5009431 195.944507,96.459823 C196.788291,95.4187029 197.210176,93.8842645 197.210176,91.8564619 C197.210176,89.8490734 196.789992,88.326543 195.94961,87.2888253 C195.109229,86.2511075 193.865688,85.7322564 192.218949,85.7322564 C190.565405,85.7322564 189.308254,86.2545098 188.447459,87.2990323 C187.586663,88.3435548 187.156272,89.8626828 187.156272,91.8564619 L187.156272,91.8564619 Z M206.612211,99.3381996 L206.612211,84.4155522 L208.347402,84.4155522 L208.347402,97.7663202 L214.930923,97.7663202 L214.930923,99.3381996 L206.612211,99.3381996 Z M234.233757,91.8564619 C234.233757,94.244914 233.629848,96.1229849 232.422013,97.4907309 C231.214177,98.858477 229.535141,99.5423398 227.384854,99.5423398 C225.186934,99.5423398 223.490886,98.8703851 222.29666,97.5264555 C221.102434,96.1825259 220.50533,94.2857423 220.50533,91.8360478 C220.50533,89.4067675 221.104135,87.5235932 222.301763,86.1864683 C223.499392,84.8493434 225.200543,84.180791 227.405268,84.180791 C229.548751,84.180791 231.222683,84.8612514 232.427116,86.2221928 C233.63155,87.5831342 234.233757,89.4612051 234.233757,91.8564619 L234.233757,91.8564619 Z M222.342591,91.8564619 C222.342591,93.8774598 222.772983,95.410197 223.633778,96.4547195 C224.494573,97.499242 225.74492,98.0214954 227.384854,98.0214954 C229.038398,98.0214954 230.287043,97.5009431 231.130826,96.459823 C231.97461,95.4187029 232.396495,93.8842645 232.396495,91.8564619 C232.396495,89.8490734 231.976311,88.326543 231.13593,87.2888253 C230.295548,86.2511075 229.052007,85.7322564 227.405268,85.7322564 C225.751724,85.7322564 224.494573,86.2545098 223.633778,87.2990323 C222.772983,88.3435548 222.342591,89.8626828 222.342591,91.8564619 L222.342591,91.8564619 Z M248.361637,91.5196306 L253.434521,91.5196306 L253.434521,98.7768141 C252.645175,99.0285882 251.842231,99.2191172 251.025666,99.3484066 C250.209102,99.477696 249.263262,99.5423398 248.188118,99.5423398 C245.928955,99.5423398 244.169965,98.8703851 242.911094,97.5264555 C241.652223,96.1825259 241.022797,94.2993515 241.022797,91.8768759 C241.022797,90.3254027 241.334108,88.9661829 241.956739,87.7991757 C242.57937,86.6321685 243.475876,85.7407653 244.646286,85.1249393 C245.816695,84.5091133 247.187823,84.201205 248.75971,84.201205 C250.352012,84.201205 251.835416,84.493803 253.209966,85.0790078 L252.536304,86.6100591 C251.188972,86.0384638 249.892695,85.7526704 248.647433,85.7526704 C246.830577,85.7526704 245.411817,86.2936365 244.391111,87.3755848 C243.370405,88.4575332 242.860059,89.9579486 242.860059,91.8768759 C242.860059,93.8910691 243.351692,95.4187029 244.334972,96.459823 C245.318252,97.5009431 246.762529,98.0214954 248.667847,98.0214954 C249.702163,98.0214954 250.712647,97.9024148 251.699329,97.6642501 L251.699329,93.071096 L248.361637,93.071096 L248.361637,91.5196306 Z M265.051476,91.8768759 L269.03221,84.4155522 L270.9103,84.4155522 L265.929279,93.5508254 L265.929279,99.3381996 L264.173674,99.3381996 L264.173674,93.6324815 L259.20286,84.4155522 L261.101364,84.4155522 L265.051476,91.8768759 Z" id="TECHNOLOGY"></path>
            </g>
        </g>
    </g>
</svg>