<?xml version="1.0" encoding="UTF-8"?>
<svg width="55px" height="80px" viewBox="0 0 55 80" version="1.1" xmlns="http://www.w3.org/2000/svg" xmlns:xlink="http://www.w3.org/1999/xlink">
    <!-- Generator: Sketch 41.2 (35397) - http://www.bohemiancoding.com/sketch -->
    <title>poi</title>
    <desc>Created with Sketch.</desc>
    <defs></defs>
    <g id="Page-1" stroke="none" stroke-width="1" fill="none" fill-rule="evenodd">
        <g id="poi">
            <g id="ottoboni.fi">
                <g id="Contact-Desktop">
                    <g id="map">
                        <g id="poi">
                            <path d="M54.8298,29.4737 C54.8298,54.7367 27.4148,79.9997 27.4148,79.9997 C27.4148,79.9997 -0.0002,54.7367 -0.0002,29.4737 C-0.0002,13.1957 12.2738,-0.0003 27.4148,-0.0003 C42.5558,-0.0003 54.8298,13.1957 54.8298,29.4737" id="Fill-1" fill="#000000"></path>
                            <g id="ICON-Copy-2" transform="translate(12.000000, 9.000000)" fill="#FFFFFF">
                                <polygon id="Fill-1" points="15.485311 0.179874 7.74252035 4.644414 15.485311 9.109134 23.228282 13.573314 15.485311 18.038034 23.228282 22.502574 23.228282 31.432014 30.9712529 26.967294 30.9712529 9.109134 23.228282 4.644414"></polygon>
                                <polygon id="Fill-2" points="0 9.109152 0 26.967312 7.74261047 31.432032 15.4854012 35.896572 23.2281919 31.432032 15.4854012 26.967312 7.74261047 22.502592 15.4854012 18.038052 7.74261047 13.573512 7.74261047 13.573332 7.74261047 4.644432"></polygon>
                            </g>
                        </g>
                    </g>
                </g>
            </g>
        </g>
    </g>
</svg>